<?xml version="1.0" encoding="utf-8"?>
<!-- Generator: Adobe Illustrator 27.0.0, SVG Export Plug-In . SVG Version: 6.00 Build 0)  -->
<svg version="1.1" id="Layer_1" xmlns="http://www.w3.org/2000/svg" xmlns:xlink="http://www.w3.org/1999/xlink" x="0px" y="0px"
	 viewBox="0 0 1024 1024" style="enable-background:new 0 0 1024 1024;" xml:space="preserve">
<style type="text/css">
	.st0{fill:#EF7F8A;}
</style>
<g id="Calque_2">
	<g>
		<path class="st0" d="M319.3,392.2c-14.9,1.8-13.2,32.4,6.4,34.3C353.3,429.3,338.2,389.9,319.3,392.2z"/>
		<path class="st0" d="M258,382.2c-13.3,2.3-23,20.4-8.3,26.7C274,419.2,286.8,377.3,258,382.2z"/>
		<path class="st0" d="M921.3,875.7c-0.1-0.3-0.3-0.6-0.4-0.9c-1.2-2.9-2.4-4.7-2.9-5.3c3.5-14.8,0.6-26.4,0.6-26.4l0,0
			c-3.2-18.7-14.1-39.9-26.3-52.2c22.3-33.5,38.5-71.8,47.3-111.3c12.5-55.8,14.5-125.4,0-180.9c-3.8-14.7-7.8-37.6-27.6-28.9
			c-10.3,4.5-32.9,25.8-44.3,33.8c-80.1,56.5-157.6,77.6-250.3,103.7c-68.6,19.3-113.8,34.4-188,28c-17.4-1.5-68.4-9.4-80.5-21
			c-5.6-5.3-5.1-13.5,2.2-17c11.5-5.5,55.9-1.4,71.9-2.3c5.5-0.3,24-1.9,27.3-5.2c5-4.9,0.8-8.7-5.2-9.3
			c-14.3-1.4-32.7,2.1-48.3,1.4c-18.6-0.8-68.9-7.7-81.9-20.9c-7.3-7.4-5.1-15.5,4.3-19.2c13.5-5.4,47.1,2.8,63.4,3.6
			c13,0.7,31.5,1,44.3,0c3-0.2,6-0.7,8.8-1.6c1.8-0.6,4.4-1.6,5-3.6c0.6-2-0.8-3.9-2.3-5c-1.9-1.4-4.2-1.6-6.5-1.6
			c-2.2,0-4.3-0.1-6.4-0.1c-4.9-0.1-9.8-0.1-14.7-0.3c-8.3-0.3-16.5-0.9-24.7-1.7c-8.2-0.8-16.4-1.9-24.5-3.3
			c-8.1-1.4-16.2-3.2-24.1-5.4c-11.3-3.1-40.8-10.8-35.6-27c4.2-13.1,29.8-9.9,40.4-9c37.1,3.1,75.2,12.3,112.6,3.2
			c7-1.7,22.8-7.8,9.5-14.7c-7.3-3.8-27.3-4-36.9-6.1c-11.7-2.6-28-6.4-24.4-21.9c1-4.4,6.2-8,10.3-9.2c5-1.4,25.3-2.2,31.6-2.2
			c59.2-0.3,109.4,21.6,171.9,18.3c64.2-3.4,176.6-42.9,223.8-87.2c9.4-8.9,24.4-24.4,18.3-37.8c-6.7-14.8-44.9-44.1-59.4-53.8
			c-40-26.8-87.5-48.3-133.9-60.6c8.2-26.3,20-53.5,22.1-81.3c0.9-11.8,1.5-41.2-3.6-51c-6.3-12-34.4-6-45.8-3.7
			c-32.5,6.8-67.6,23.4-91.9,46C490,99.3,424.6,91.6,364.2,106.6C349,85,310.4,39.1,283.5,35.6c-15.1-2-18.8,4.1-25.5,15.9
			c-19.3,33.9-26,74.1-25.2,112.8c-105,85.2-153.3,235-146.4,367.7c3.6,70.4,29.6,93.5,87.7,127.1c94.8,54.7,237.8,88.4,346.2,71.1
			c52.7-8.4,58.5-36.6,96.8-64.6c5.2-3.8,10.7-7.3,16.1-10.8c7.4-4.8,15-9.4,22.6-13.8c8.5-4.9,19.6-12.2,29.6-6.6
			c4.8,2.7,5.8,8.1,4.7,13.1c-3,14.5-30.3,35.3-40.1,47.1c-16.4,19.9,8.5,14.7,20.4,10c37.5-14.8,60.2-41.3,91.6-61.9
			c18.9-12.4,45.1-16.3,28.7,14.4c-12.2,22.9-40.8,46.9-61.8,61.9c-6.1,4.3-27.8,16.3-30.9,19.9c-4.4,5.2-0.7,9,5.7,8.4
			c11.2-1.1,50-26.7,60.5-34.5c8.3-6.2,28.7-26.7,36.5-28.6c10.7-2.6,15.7,7.4,14.2,16.9c-2.7,17.3-45.2,49.6-60.1,59.6
			c-0.5,0.4-1.1,0.7-1.7,1.1c-1.1,0.7-2.2,1.3-3.3,2c-1.4,0.8-2.9,1.7-4.4,2.5c-1.7,1-3.4,1.9-5.1,2.9c-1.8,1.1-3.6,2.1-5.5,3.2
			c-1.9,1.1-3.7,2.2-5.6,3.2c-1.8,1-3.6,2.1-5.3,3.1c-1.6,1-3.2,1.9-4.8,2.9c-1.3,0.8-2.7,1.6-4,2.5c-2,1.3-4.4,2.8-4.6,5.4
			c-0.1,1.1,0.1,2.2,0.7,3.2c0.6,1,1.7,1.5,2.9,1.7c8.7,1.3,43.7-18.7,52.6-24.3c2.9-1.8,5.6-3.8,8.4-5.8c4-2.8,7.9-5.7,11.9-8.4
			c3.7-2.5,7.3-5.1,11.2-7.3c1.5-0.9,3-1.8,4.7-2.3c3-0.9,7.1,0.4,9,2.9c2.4,3.1,1.9,7.6,1.1,11.2c-0.9,4.1-2.6,8.2-4.7,11.9
			c-0.2,0.4-0.4,0.8-0.7,1.1c-34.9,57.2-142.7,95-205.9,105.1c-156.5,25-325.5-10.9-449.8-110.3c-3.7-3-20.4-23.3-20.3-7.1
			c0,15.2,31.2,58.6,41.8,71.5c108.3,132.7,299.7,184.9,463.8,141.1C733,948.1,818,888.9,878.3,811.1c6,3.7,10.4,9.4,13.7,15.9
			c0.4,0.9,5.5,12,6.6,25.3c-0.3-0.1-0.5-0.2-0.7-0.3c-17.3-6.4-39.6-5.1-49.2,12.8c-8.1,15.1-3.9,39.1,13.5,45.6
			c15.7,5.8,27.9-0.9,38.3-11c1.7-1.7,3.4-3.5,5-5.3l0,0c0,0,0.1-0.1,0.1-0.2c0.7-0.8,1.4-1.6,2.1-2.4c0.4,4.1-0.2,9-2.2,15.1
			c-1.5,4.8-3.8,10.3-7.2,15.9c-0.4,0.6-1.1,1.5-1.8,2.4c-1.5,1.9-5.2,6.5-6.6,8.3c-0.2,0.2-0.3,0.4-0.5,0.6l-0.1,0.1l0,0
			c-0.6,0.7-1.1,1.5-1.4,2.2l0,0l0,0c-0.7,1.4-0.8,2.6-0.1,3.7c2.7,4,16.2-5.4,18.8-7.8c0.4-0.3,0.8-0.7,1.1-1.1
			c1.4-1.3,2.6-2.8,3.8-4.3c1.2-1.6,2.3-3.2,3.3-4.9c1-1.7,1.9-3.5,2.8-5.4c0.5-1.2,1-2.5,1.5-3.7l0,0c0.3-0.7,0.5-1.4,0.7-2l0,0
			l0,0c4.9-13.4,4.3-23.9,2.4-30.9c-0.6-2.7-1.3-4.1-1.3-4.1L921.3,875.7z M407.2,273.2c6.9-0.4,10.2,10,13.9,14.6
			c11.6,14.5,29.1,13.9,44.8,6.4c6-2.9,9.1-8.4,16.8-5.8c9.6,3.2,1.1,14.7-4,18.6c-22.3,17.1-62.8,14.2-75.6-13
			C400.1,287.8,396.2,273.8,407.2,273.2L407.2,273.2z M241,238.9c10.1-2.3,10.3,11.8,14.8,19c8.9,14.1,28.6,12.4,42.5,7.3
			c5.8-2.1,14.3-9.7,18.8-1.1c6,11.4-17,20.6-25.3,22.5c-20.5,4.7-44.7-2.5-53.8-22.7C235.2,257.4,231.7,240.9,241,238.9L241,238.9z
			 M248.6,440c-59.4-23.2-20.2-97.5,29-103.4c37.7-4.5,83.9,19.4,96.5,56.3c15,44-15.3,68.8-57.8,62.1c-9.4-1.5-18.2-5-27.5-6.9
			C275.4,445.4,261.2,444.9,248.6,440L248.6,440z M867.9,890.4c-8.6-6.2-2.3-20,6.8-21.9c6.7-1.4,15.9,0.9,21,5.5
			c-0.6,1.3-1.2,2.6-1.9,3.9C888.5,887.2,877.8,897.6,867.9,890.4L867.9,890.4z"/>
	</g>
</g>
</svg>
